# xmcd CD database file
#
# Track frame offsets:
#	150
#	19089
#	36692
#	51950
#	71353
#	86712
#	103063
#	121232
#	136103
#	152078
#	170743
#	191613
#	208332
#	226256
#	242331
#	259574
#	272058
#	287717
#	301630
#	319792
#	335488
#
# Disc length: 4764 seconds
#
# Revision: 2
# Processed by: cddbd v1.5.2PL0 Copyright (c) Steve Scherf et al.
# Submitted via: CDex 1.51
#
DISCID=2c129a15
DTITLE=Various Artist - ZMPB-CD-3
DYEAR=1900
DGENRE=Blues
TTITLE0=Jason Mraz - I'm Yours
TTITLE1=Alanis Morissette - Ironic
TTITLE2=Jason Derulo - It Girl
TTITLE3=Christina Perri - Jar Of Hearts
TTITLE4=Will Young - Jealousy
TTITLE5=Pixie Lott - Kiss The Stars
TTITLE6=Katy Perry - Last Friday Night (t.g.i.f.)
TTITLE7=Ed Sheeran - Lego House
TTITLE8=The Wanted - Lightning
TTITLE9=Taylor Swift - Love Story
TTITLE10=Eminem Ft Rihanna - Love The Way You lie (duet)
TTITLE11=Adele - Make You Feel My love
TTITLE12=Bruno Mars - Marry You
TTITLE13=Maroon 5 Ft Christina Aguilera - Moves like Jagger
TTITLE14=The Killers - Mr Brightside
TTITLE15=Alexandra Stan - Mr Saxobeat
TTITLE16=Emeli Sande - Next To Me
TTITLE17=Rebecca Ferguson - Nothing's Real But Love
TTITLE18=Jennifer Lopez - On The Floor (for solo female)
TTITLE19=One Direction - One Thing
TTITLE20=Coldplay - Paradise
EXTD=
EXTT0=
EXTT1=
EXTT2=
EXTT3=
EXTT4=
EXTT5=
EXTT6=
EXTT7=
EXTT8=
EXTT9=
EXTT10=
EXTT11=
EXTT12=
EXTT13=
EXTT14=
EXTT15=
EXTT16=
EXTT17=
EXTT18=
EXTT19=
EXTT20=
PLAYORDER=
